<svg width="16" height="16" viewBox="0 0 16 16" fill="none" xmlns="http://www.w3.org/2000/svg">
<path d="M1.70119 0.931024C1.68864 0.930835 1.6761 0.93096 1.66356 0.931399C1.51706 0.936306 1.41625 0.985587 1.34753 1.05431C1.25591 1.14593 1.19878 1.29459 1.23541 1.53259C1.27209 1.77059 1.413 2.0874 1.71266 2.43699C3.83434 4.91231 5.86687 7.29824 7.45337 9.06106C7.83691 9.48718 8.19378 9.87602 8.51978 10.2215C8.89775 9.22456 9.60009 8.52949 10.4855 8.19915C10.1472 7.88043 9.76872 7.53312 9.35431 7.16015C7.59156 5.57365 5.20556 3.54106 2.73028 1.41937C2.38072 1.11968 2.06388 0.978806 1.82588 0.942118C1.78461 0.935647 1.74295 0.93194 1.70119 0.931024ZM13.4233 0.963618C13.4137 0.963514 13.4046 0.963754 13.396 0.964337C13.3269 0.968931 13.2916 0.984774 13.253 1.02343L12.3911 1.88531L14.1148 3.60887L14.9766 2.74699C15.0153 2.70837 15.0311 2.67318 15.0356 2.60406C15.0403 2.53499 15.0241 2.43424 14.9793 2.31768C14.8896 2.08456 14.6893 1.79684 14.4463 1.55377C14.2032 1.31071 13.9155 1.11049 13.6824 1.02081C13.5804 0.981587 13.4906 0.964243 13.4234 0.963618H13.4233ZM11.9934 2.28299L11.684 2.5924L11.9934 2.90171L12.3911 3.29949L12.7005 3.60881L13.0983 4.00659L13.4076 4.31596L13.717 4.00659L11.9934 2.28299ZM11.2863 2.99012L8.55541 5.72106L8.8825 6.01268L11.5957 3.29949L11.2863 2.99012ZM11.9934 3.69727L9.30303 6.38759L9.63019 6.67918L12.3028 4.00659L11.9934 3.69727ZM12.7006 4.40427L10.0507 7.05412L10.3779 7.34574L13.0099 4.71368L12.7006 4.40431H12.7006V4.40427ZM6.01753 8.25896L2.27075 12.0058L2.58006 12.3151L6.3095 8.58568L6.01753 8.25896ZM10.9444 8.63856C9.9925 8.8769 9.28066 9.55056 8.95666 10.6766C9.13328 10.8574 9.29903 11.023 9.44978 11.1675C9.68666 11.3945 9.89028 11.5739 10.0501 11.6974C10.1056 11.1591 10.364 10.6642 10.7265 10.3008C11.0578 9.96865 11.492 9.73809 11.9492 9.70415C11.8282 9.55302 11.6636 9.36821 11.4607 9.15656C11.3096 8.99884 11.1353 8.82459 10.9444 8.63856ZM6.68494 9.00568L2.97778 12.7128L3.28716 13.0222L6.977 9.3324L6.68494 9.00568ZM7.35247 9.75237L3.68494 13.4199L3.99419 13.7293L7.6445 10.0791L7.35247 9.75237ZM12.0491 10.262C11.7242 10.2662 11.3951 10.427 11.1247 10.6981C10.7642 11.0595 10.5411 11.5996 10.6163 12.1262C10.783 13.2931 11.3585 14.1828 12.162 14.6648C12.8722 15.091 13.7698 15.207 14.7758 14.8831C14.0189 14.7577 13.3235 13.9235 13.2697 13.3003C13.6018 13.7007 14.0178 14.0674 14.4705 14.2925C14.1617 13.5869 14.1829 12.8721 14.124 12.2824C14.0817 11.8598 14.0024 11.5017 13.7684 11.1836C13.5345 10.8655 13.1302 10.5648 12.3703 10.3115C12.2668 10.277 12.1582 10.2603 12.0491 10.262ZM1.97569 12.5062L1.97559 12.5063L1.97566 12.5063L1.97569 12.5062ZM1.97566 12.5063L1.597 13.4532L2.54675 14.4031L3.49378 14.0243L3.28722 13.8177L2.88934 13.42L2.58003 13.1106L2.18222 12.7129L1.97566 12.5063ZM1.36956 14.0215L0.963562 15.0364L1.9785 14.6304L1.36956 14.0215Z" fill="black"/>
</svg>
