<svg width="18" height="18" viewBox="0 0 18 18" fill="none" xmlns="http://www.w3.org/2000/svg">
<path d="M14.5 4.5H13.5V2.5H4.5V4.5H3.5C2.96957 4.5 2.46086 4.71071 2.08579 5.08579C1.71071 5.46086 1.5 5.96957 1.5 6.5V12H3.46V11.045H2.5V6.5C2.5 6.23478 2.60536 5.98043 2.79289 5.79289C2.98043 5.60536 3.23478 5.5 3.5 5.5H14.5C14.7652 5.5 15.0196 5.60536 15.2071 5.79289C15.3946 5.98043 15.5 6.23478 15.5 6.5V11H14.54V12H16.5V6.5C16.5 5.96957 16.2893 5.46086 15.9142 5.08579C15.5391 4.71071 15.0304 4.5 14.5 4.5ZM12.5 4.5H5.5V3.5H12.5V4.5Z" fill="black"/>
<path d="M14 9H4C3.86739 9 3.74021 9.05268 3.64645 9.14645C3.55268 9.24021 3.5 9.36739 3.5 9.5C3.5 9.63261 3.55268 9.75979 3.64645 9.85355C3.74021 9.94732 3.86739 10 4 10H4.5V16H13.5V10H14C14.1326 10 14.2598 9.94732 14.3536 9.85355C14.4473 9.75979 14.5 9.63261 14.5 9.5C14.5 9.36739 14.4473 9.24021 14.3536 9.14645C14.2598 9.05268 14.1326 9 14 9ZM12.5 15H5.5V10H12.5V15Z" fill="black"/>
<path d="M13.5 6.52H14.5V7.52H13.5V6.52Z" fill="black"/>
</svg>
