<svg width="24" height="24" viewBox="0 0 24 24" fill="none" xmlns="http://www.w3.org/2000/svg">
<path d="M19.25 2.75H4.75C3.64543 2.75 2.75 3.64543 2.75 4.75V19.25C2.75 20.3546 3.64543 21.25 4.75 21.25H19.25C20.3546 21.25 21.25 20.3546 21.25 19.25V4.75C21.25 3.64543 20.3546 2.75 19.25 2.75Z" stroke="#E6E6E6" stroke-width="0.5" stroke-linecap="round" stroke-linejoin="round"/>
<path d="M17.6748 7.44995C18.2961 7.44995 18.7998 6.94627 18.7998 6.32495C18.7998 5.70363 18.2961 5.19995 17.6748 5.19995C17.0535 5.19995 16.5498 5.70363 16.5498 6.32495C16.5498 6.94627 17.0535 7.44995 17.6748 7.44995Z" stroke="#E6E6E6" stroke-width="0.5" stroke-linecap="round" stroke-linejoin="round"/>
<path d="M12 16.125C14.2782 16.125 16.125 14.2782 16.125 12C16.125 9.72183 14.2782 7.875 12 7.875C9.72183 7.875 7.875 9.72183 7.875 12C7.875 14.2782 9.72183 16.125 12 16.125Z" stroke="#E6E6E6" stroke-width="0.5" stroke-linecap="round" stroke-linejoin="round"/>
</svg>
