<svg width="24" height="24" viewBox="0 0 24 24" fill="none" xmlns="http://www.w3.org/2000/svg">
<path d="M19.913 5.32201C20.1016 5.32359 20.2862 5.37673 20.4468 5.47569C20.6074 5.57465 20.7379 5.71565 20.8241 5.88343C20.9103 6.0512 20.9489 6.23937 20.9359 6.42755C20.9228 6.61573 20.8586 6.79675 20.75 6.95102L19.708 8.43201C19.644 13.518 17.943 16.971 14.652 18.696C13.084 19.476 11.3511 19.8667 9.6 19.835C7.43485 19.8849 5.29528 19.359 3.4 18.311C3.2725 18.2253 3.17396 18.103 3.11737 17.9602C3.06078 17.8174 3.0488 17.6608 3.083 17.511C3.11528 17.3591 3.19271 17.2206 3.30514 17.1135C3.41757 17.0064 3.55974 16.9359 3.713 16.911C4.98625 16.7332 6.24005 16.4366 7.458 16.025C2 13.5 3.19 7.82401 3.71 6.08101C3.76069 5.90797 3.85601 5.7513 3.98639 5.62674C4.11677 5.50218 4.27761 5.4141 4.45279 5.37134C4.62796 5.32859 4.8113 5.33266 4.98441 5.38315C5.15751 5.43365 5.31429 5.52878 5.439 5.65901C7.03659 7.30531 9.1549 8.34769 11.434 8.60901C11.3937 7.99657 11.4884 7.38274 11.7115 6.81095C11.9346 6.23915 12.2806 5.72335 12.725 5.30002C13.4951 4.56918 14.5173 4.16341 15.579 4.16714C16.6407 4.17086 17.66 4.5838 18.425 5.32002L19.913 5.32201ZM4.521 17.794C6.383 18.666 10.747 19.613 14.188 17.81C17.143 16.261 18.664 13.078 18.709 8.34901C18.711 8.19263 18.7605 8.04056 18.851 7.91302L19.932 6.37502L19.891 6.32202C19.373 6.31502 18.862 6.30802 18.341 6.32202C18.1379 6.31691 17.9436 6.23839 17.794 6.10101C17.2183 5.5175 16.4368 5.18309 15.6172 5.16962C14.7976 5.15616 14.0055 5.46472 13.411 6.02901C13.0289 6.39197 12.7432 6.84447 12.58 7.34559C12.4167 7.8467 12.381 8.38061 12.476 8.89901C12.4931 8.99559 12.4881 9.09478 12.4615 9.18917C12.4348 9.28355 12.3871 9.37068 12.322 9.44402C12.2594 9.5179 12.1796 9.57525 12.0896 9.61101C11.9996 9.64676 11.9022 9.65981 11.806 9.64901C9.11912 9.46189 6.59618 8.28839 4.722 6.35402C4.052 8.43202 3.202 13.448 8.591 15.419C8.70454 15.4595 8.80409 15.5317 8.87783 15.6271C8.95157 15.7224 8.9964 15.8369 9.007 15.957C9.01859 16.0751 8.99657 16.1941 8.9435 16.3003C8.89042 16.4064 8.80844 16.4954 8.707 16.557C7.38998 17.1988 5.97531 17.6168 4.521 17.794Z" fill="black"/>
</svg>
